<mxfile host="Electron" modified="2024-03-02T16:29:19.899Z" agent="Mozilla/5.0 (Windows NT 10.0; Win64; x64) AppleWebKit/537.36 (KHTML, like Gecko) draw.io/23.1.5 Chrome/120.0.6099.109 Electron/28.1.0 Safari/537.36" etag="KKH64VQj7DElbnG3wIgq" version="23.1.5" type="device">
  <diagram name="Страница — 1" id="hiwBlVGiFP5OjQJbE0yj">
    <mxGraphModel dx="1434" dy="844" grid="1" gridSize="10" guides="1" tooltips="1" connect="1" arrows="1" fold="1" page="1" pageScale="1" pageWidth="827" pageHeight="1169" math="0" shadow="0">
      <root>
        <mxCell id="0" />
        <mxCell id="1" parent="0" />
        <mxCell id="sb92uRKTc0TN339oHrCb-21" value="" style="edgeStyle=orthogonalEdgeStyle;rounded=0;orthogonalLoop=1;jettySize=auto;html=1;" edge="1" parent="1" source="sb92uRKTc0TN339oHrCb-2" target="sb92uRKTc0TN339oHrCb-20">
          <mxGeometry relative="1" as="geometry" />
        </mxCell>
        <mxCell id="sb92uRKTc0TN339oHrCb-2" value="Заявка на заказ" style="rounded=0;whiteSpace=wrap;html=1;fontStyle=1" vertex="1" parent="1">
          <mxGeometry x="340" y="20" width="120" height="60" as="geometry" />
        </mxCell>
        <mxCell id="sb92uRKTc0TN339oHrCb-23" value="" style="edgeStyle=orthogonalEdgeStyle;rounded=0;orthogonalLoop=1;jettySize=auto;html=1;" edge="1" parent="1" source="sb92uRKTc0TN339oHrCb-20">
          <mxGeometry relative="1" as="geometry">
            <mxPoint x="400" y="210" as="targetPoint" />
          </mxGeometry>
        </mxCell>
        <mxCell id="sb92uRKTc0TN339oHrCb-20" value="Оформлен" style="rounded=0;whiteSpace=wrap;html=1;" vertex="1" parent="1">
          <mxGeometry x="340" y="160" width="120" height="20" as="geometry" />
        </mxCell>
        <mxCell id="sb92uRKTc0TN339oHrCb-25" value="" style="edgeStyle=orthogonalEdgeStyle;rounded=0;orthogonalLoop=1;jettySize=auto;html=1;" edge="1" parent="1" source="sb92uRKTc0TN339oHrCb-22">
          <mxGeometry relative="1" as="geometry">
            <mxPoint x="400" y="260" as="targetPoint" />
          </mxGeometry>
        </mxCell>
        <mxCell id="sb92uRKTc0TN339oHrCb-22" value="Ожидает оплаты" style="rounded=0;whiteSpace=wrap;html=1;" vertex="1" parent="1">
          <mxGeometry x="340" y="210" width="120" height="20" as="geometry" />
        </mxCell>
        <mxCell id="sb92uRKTc0TN339oHrCb-27" value="" style="edgeStyle=orthogonalEdgeStyle;rounded=0;orthogonalLoop=1;jettySize=auto;html=1;" edge="1" parent="1" source="sb92uRKTc0TN339oHrCb-24">
          <mxGeometry relative="1" as="geometry">
            <mxPoint x="400" y="310" as="targetPoint" />
          </mxGeometry>
        </mxCell>
        <mxCell id="sb92uRKTc0TN339oHrCb-24" value="оплачен" style="rounded=0;whiteSpace=wrap;html=1;" vertex="1" parent="1">
          <mxGeometry x="340" y="250" width="120" height="20" as="geometry" />
        </mxCell>
        <mxCell id="sb92uRKTc0TN339oHrCb-29" value="" style="edgeStyle=orthogonalEdgeStyle;rounded=0;orthogonalLoop=1;jettySize=auto;html=1;" edge="1" parent="1" source="sb92uRKTc0TN339oHrCb-26" target="sb92uRKTc0TN339oHrCb-28">
          <mxGeometry relative="1" as="geometry" />
        </mxCell>
        <mxCell id="sb92uRKTc0TN339oHrCb-31" value="" style="edgeStyle=orthogonalEdgeStyle;rounded=0;orthogonalLoop=1;jettySize=auto;html=1;" edge="1" parent="1" source="sb92uRKTc0TN339oHrCb-26" target="sb92uRKTc0TN339oHrCb-30">
          <mxGeometry relative="1" as="geometry" />
        </mxCell>
        <mxCell id="sb92uRKTc0TN339oHrCb-26" value="Заказ собирается" style="rounded=0;whiteSpace=wrap;html=1;" vertex="1" parent="1">
          <mxGeometry x="340" y="310" width="120" height="30" as="geometry" />
        </mxCell>
        <mxCell id="sb92uRKTc0TN339oHrCb-35" value="" style="edgeStyle=orthogonalEdgeStyle;rounded=0;orthogonalLoop=1;jettySize=auto;html=1;" edge="1" parent="1" source="sb92uRKTc0TN339oHrCb-28" target="sb92uRKTc0TN339oHrCb-34">
          <mxGeometry relative="1" as="geometry" />
        </mxCell>
        <mxCell id="sb92uRKTc0TN339oHrCb-28" value="Передан в доставку" style="rounded=0;whiteSpace=wrap;html=1;" vertex="1" parent="1">
          <mxGeometry x="490" y="320" width="120" height="30" as="geometry" />
        </mxCell>
        <mxCell id="sb92uRKTc0TN339oHrCb-33" value="" style="edgeStyle=orthogonalEdgeStyle;rounded=0;orthogonalLoop=1;jettySize=auto;html=1;" edge="1" parent="1" source="sb92uRKTc0TN339oHrCb-30" target="sb92uRKTc0TN339oHrCb-32">
          <mxGeometry relative="1" as="geometry" />
        </mxCell>
        <mxCell id="sb92uRKTc0TN339oHrCb-30" value="Передан в доставку" style="rounded=0;whiteSpace=wrap;html=1;" vertex="1" parent="1">
          <mxGeometry x="170" y="330" width="120" height="30" as="geometry" />
        </mxCell>
        <mxCell id="sb92uRKTc0TN339oHrCb-43" value="" style="edgeStyle=orthogonalEdgeStyle;rounded=0;orthogonalLoop=1;jettySize=auto;html=1;" edge="1" parent="1" source="sb92uRKTc0TN339oHrCb-32" target="sb92uRKTc0TN339oHrCb-42">
          <mxGeometry relative="1" as="geometry" />
        </mxCell>
        <mxCell id="sb92uRKTc0TN339oHrCb-32" value="Доставка в магазин" style="rounded=0;whiteSpace=wrap;html=1;" vertex="1" parent="1">
          <mxGeometry x="170" y="380" width="120" height="30" as="geometry" />
        </mxCell>
        <mxCell id="sb92uRKTc0TN339oHrCb-37" value="" style="edgeStyle=orthogonalEdgeStyle;rounded=0;orthogonalLoop=1;jettySize=auto;html=1;" edge="1" parent="1" source="sb92uRKTc0TN339oHrCb-34" target="sb92uRKTc0TN339oHrCb-36">
          <mxGeometry relative="1" as="geometry" />
        </mxCell>
        <mxCell id="sb92uRKTc0TN339oHrCb-34" value="Доставка курьером" style="rounded=0;whiteSpace=wrap;html=1;" vertex="1" parent="1">
          <mxGeometry x="490" y="370" width="120" height="30" as="geometry" />
        </mxCell>
        <mxCell id="sb92uRKTc0TN339oHrCb-39" value="" style="edgeStyle=orthogonalEdgeStyle;rounded=0;orthogonalLoop=1;jettySize=auto;html=1;" edge="1" parent="1" source="sb92uRKTc0TN339oHrCb-36" target="sb92uRKTc0TN339oHrCb-38">
          <mxGeometry relative="1" as="geometry" />
        </mxCell>
        <mxCell id="sb92uRKTc0TN339oHrCb-59" value="" style="edgeStyle=orthogonalEdgeStyle;rounded=0;orthogonalLoop=1;jettySize=auto;html=1;" edge="1" parent="1" source="sb92uRKTc0TN339oHrCb-36" target="sb92uRKTc0TN339oHrCb-58">
          <mxGeometry relative="1" as="geometry" />
        </mxCell>
        <mxCell id="sb92uRKTc0TN339oHrCb-36" value="Ожидает выдачи" style="rounded=0;whiteSpace=wrap;html=1;" vertex="1" parent="1">
          <mxGeometry x="490" y="430" width="120" height="30" as="geometry" />
        </mxCell>
        <mxCell id="sb92uRKTc0TN339oHrCb-38" value="Доставлен" style="rounded=0;whiteSpace=wrap;html=1;" vertex="1" parent="1">
          <mxGeometry x="490" y="490" width="120" height="30" as="geometry" />
        </mxCell>
        <mxCell id="sb92uRKTc0TN339oHrCb-45" value="" style="edgeStyle=orthogonalEdgeStyle;rounded=0;orthogonalLoop=1;jettySize=auto;html=1;" edge="1" parent="1" source="sb92uRKTc0TN339oHrCb-42" target="sb92uRKTc0TN339oHrCb-44">
          <mxGeometry relative="1" as="geometry" />
        </mxCell>
        <mxCell id="sb92uRKTc0TN339oHrCb-55" value="" style="edgeStyle=orthogonalEdgeStyle;rounded=0;orthogonalLoop=1;jettySize=auto;html=1;" edge="1" parent="1" source="sb92uRKTc0TN339oHrCb-42" target="sb92uRKTc0TN339oHrCb-54">
          <mxGeometry relative="1" as="geometry" />
        </mxCell>
        <mxCell id="sb92uRKTc0TN339oHrCb-42" value="Ожидает ввыдачи" style="rounded=0;whiteSpace=wrap;html=1;" vertex="1" parent="1">
          <mxGeometry x="170" y="420" width="120" height="30" as="geometry" />
        </mxCell>
        <mxCell id="sb92uRKTc0TN339oHrCb-44" value="Выдан" style="rounded=0;whiteSpace=wrap;html=1;" vertex="1" parent="1">
          <mxGeometry x="170" y="470" width="120" height="30" as="geometry" />
        </mxCell>
        <mxCell id="sb92uRKTc0TN339oHrCb-48" value="Омена заказа может быть на любом этапе" style="rounded=0;whiteSpace=wrap;html=1;" vertex="1" parent="1">
          <mxGeometry x="340" y="630" width="120" height="60" as="geometry" />
        </mxCell>
        <mxCell id="sb92uRKTc0TN339oHrCb-57" value="" style="edgeStyle=orthogonalEdgeStyle;rounded=0;orthogonalLoop=1;jettySize=auto;html=1;" edge="1" parent="1" source="sb92uRKTc0TN339oHrCb-54" target="sb92uRKTc0TN339oHrCb-56">
          <mxGeometry relative="1" as="geometry" />
        </mxCell>
        <mxCell id="sb92uRKTc0TN339oHrCb-54" value="Выдан" style="rounded=0;whiteSpace=wrap;html=1;" vertex="1" parent="1">
          <mxGeometry x="30" y="420" width="120" height="30" as="geometry" />
        </mxCell>
        <mxCell id="sb92uRKTc0TN339oHrCb-56" value="Возвращен" style="rounded=0;whiteSpace=wrap;html=1;" vertex="1" parent="1">
          <mxGeometry x="30" y="530" width="120" height="30" as="geometry" />
        </mxCell>
        <mxCell id="sb92uRKTc0TN339oHrCb-61" value="" style="edgeStyle=orthogonalEdgeStyle;rounded=0;orthogonalLoop=1;jettySize=auto;html=1;" edge="1" parent="1" source="sb92uRKTc0TN339oHrCb-58" target="sb92uRKTc0TN339oHrCb-60">
          <mxGeometry relative="1" as="geometry" />
        </mxCell>
        <mxCell id="sb92uRKTc0TN339oHrCb-58" value="Доставлен" style="rounded=0;whiteSpace=wrap;html=1;" vertex="1" parent="1">
          <mxGeometry x="640" y="430" width="120" height="30" as="geometry" />
        </mxCell>
        <mxCell id="sb92uRKTc0TN339oHrCb-60" value="Возвращен" style="rounded=0;whiteSpace=wrap;html=1;" vertex="1" parent="1">
          <mxGeometry x="640" y="540" width="120" height="30" as="geometry" />
        </mxCell>
      </root>
    </mxGraphModel>
  </diagram>
</mxfile>
